#tb 0: 1/10
#media_type 0: video
#codec_id 0: rawvideo
#dimensions 0: 320x240
#sar 0: 1/1
0,          0,          0,        1,   115200, 0xeba70ff3
0,          4,          4,        1,   115200, 0xeba70ff3
0,          8,          8,        1,   115200, 0xeba70ff3
0,         10,         10,        1,   115200, 0x1eb2b02b
0,         14,         14,        1,   115200, 0x1eb2b02b
0,         18,         18,        1,   115200, 0x1eb2b02b
0,         20,         20,        1,   115200, 0xa445b7ae
0,         24,         24,        1,   115200, 0xa445b7ae
0,         28,         28,        1,   115200, 0xa445b7ae
0,         30,         30,        1,   115200, 0x5bbec1c6
0,         34,         34,        1,   115200, 0x5bbec1c6
0,         38,         38,        1,   115200, 0x5bbec1c6
0,         40,         40,        1,   115200, 0x2393489d
0,         44,         44,        1,   115200, 0x2393489d
0,         48,         48,        1,   115200, 0x2393489d
